<svg xmlns="http://www.w3.org/2000/svg" enable-background="new 0 0 512 512" viewBox="0 0 512 512" id="solution"><path fill="#7ad1f9" d="M320.064,306.961c0.801,10.515,3.692,20.745,7.636,30.605c1.085,2.712,1.691,5.711,1.691,8.838c0,14.741-13.401,26.354-28.683,23.355c-9.284-1.819-16.782-9.253-18.601-18.537c-1.02-5.073-0.382-9.986,1.468-14.23c4.125-9.604,7-19.657,7.518-30.031h-86.089v86.089c-10.374-0.519-20.426-3.393-30.031-7.518c-4.244-1.85-9.156-2.488-14.23-1.468c-9.284,1.818-16.718,9.316-18.537,18.601c-2.999,15.283,8.614,28.682,23.355,28.682c3.127,0,6.126-0.606,8.838-1.69c9.86-3.945,20.09-6.835,30.605-7.636v85.945h169.1c17.611,0,31.905-14.294,31.905-31.905V306.961H320.064z"></path><path fill="#4cc3f7" d="M405.999,444.447v31.599c0,17.64-14.279,31.92-31.88,31.92h-169.12v-31.64h169.12C391.72,476.327,405.999,462.046,405.999,444.447z"></path><path fill="#a6e1fb" d="M204.999 306.961h86.08c-.52 10.36-3.359 20.44-7.52 30.04-.24.52-.44 1.04-.601 1.6h-77.96v-31.64H204.999zM405.999 306.961v31.64h-77.92c-.08-.359-.239-.68-.359-1.04-3.96-9.84-6.841-20.08-7.641-30.599h85.92V306.961z"></path><path fill="#bd90be" d="M459.5,26.787c-5.051-16.872-22.845-26.466-39.716-21.415L257.789,53.871l24.649,82.333c9.844-3.783,18.815-9.487,27.13-16.092c2.288-1.818,4.987-3.258,7.982-4.155c14.122-4.227,29.091,5.279,30.601,20.78c0.92,9.416-4.051,18.731-12.425,23.136c-4.567,2.433-9.457,3.23-14.053,2.675c-10.385-1.197-20.839-1.068-30.927,1.41l24.691,82.473l82.472-24.69c2.478,10.087,2.608,20.541,1.41,30.925c-0.555,4.596,0.243,9.485,2.675,14.053c4.405,8.373,13.72,13.344,23.136,12.424c15.5-1.51,25.007-16.479,20.78-30.6c-0.897-2.995-2.337-5.694-4.155-7.982c-6.606-8.315-12.31-17.285-16.093-27.129l82.334-24.649L459.5,26.787z"></path><path fill="#d3b5d3" d="M459.498,26.797l9.065,30.272c-5.049-16.86-22.824-26.444-39.723-21.383L266.865,84.187l-9.076-30.31L419.763,5.375C436.662,0.314,454.449,9.936,459.498,26.797z"></path><path fill="#a76ba8" d="M507.999,188.779l-82.309,24.647c3.796,9.886,9.481,18.832,16.097,27.122c1.815,2.296,3.25,4.997,4.145,7.986c4.234,14.14-5.275,29.096-20.773,30.605c-9.407,0.937-18.706-4.044-23.131-12.407c-2.415-4.579-3.214-9.476-2.667-14.066c1.193-10.378,1.072-20.823-1.452-30.923l-82.462,24.693l-9.076-30.31l192.553-57.658L507.999,188.779z"></path><path fill="#fddd8d" d="M267.794,211.245c-1.819,9.284-9.252,16.782-18.537,18.601c-5.072,1.02-9.986,0.382-14.23-1.468c-9.604-4.116-19.653-6.988-30.023-7.498v86.081h-86.082c0.511-10.369,3.382-20.419,7.498-30.024c1.851-4.243,2.489-9.156,1.468-14.23c-1.818-9.284-9.316-16.718-18.6-18.536c-15.283-3-28.683,8.614-28.683,23.355c0,3.127,0.606,6.126,1.69,8.837c3.957,9.859,6.86,20.069,7.658,30.598H3.999v-169.1c0-17.612,14.294-31.905,31.905-31.905h169.1v85.953c10.529-0.798,20.739-3.701,30.597-7.657c2.712-1.085,5.711-1.691,8.838-1.691C259.179,182.562,270.793,195.962,267.794,211.245z"></path><path fill="#fdd267" d="M82.279 276.366c3.96 9.84 6.88 20.08 7.68 30.599H3.999v-31.64h77.92C81.999 275.686 82.159 276.046 82.279 276.366zM204.999 275.326v31.64h-86.079c.52-10.359 3.399-20.439 7.52-30.04.24-.52.439-1.04.6-1.6H204.999z"></path><path fill="#fee8b3" d="M204.999,105.956v31.64H35.92c-17.641-0.001-31.921,14.279-31.921,31.879v-31.6c0-17.64,14.28-31.92,31.921-31.92h169.079V105.956z"></path><path fill="#7bde9e" d="M142.214,402.678c-2.999,15.283,8.614,28.683,23.355,28.683c3.127,0,6.126-0.606,8.838-1.691c9.859-3.956,20.069-6.859,30.598-7.657v85.953H35.904c-17.612,0-31.905-14.293-31.905-31.905v-169.1h85.953c-0.798-10.529-3.701-20.739-7.658-30.598c-1.084-2.712-1.69-5.71-1.69-8.837c0-14.741,13.4-26.355,28.683-23.355c9.284,1.819,16.782,9.252,18.6,18.536c1.021,5.073,0.383,9.987-1.468,14.23c-4.116,9.604-6.987,19.654-7.498,30.024h86.082v86.081c-10.369-0.51-20.42-3.382-30.024-7.498c-4.243-1.85-9.156-2.488-14.23-1.467C151.467,385.896,144.032,393.393,142.214,402.678z"></path><path fill="#a7e9bf" d="M3.999,338.61h201.005v-31.649h-86.082c0.512-10.37,3.383-20.419,7.498-30.024c1.852-4.243,2.489-9.157,1.468-14.23c-1.817-9.284-9.316-16.717-18.601-18.536c-15.283-3-28.683,8.614-28.683,23.355c0,3.126,0.605,6.125,1.69,8.837c3.957,9.859,6.859,20.068,7.657,30.598H3.999V338.61z"></path><path fill="#50d27e" d="M204.999,476.327v31.64H35.92c-17.641-0.001-31.921-14.281-31.921-31.921v-31.599c0,17.6,14.28,31.88,31.921,31.88L204.999,476.327L204.999,476.327z"></path><path fill="#333" d="M406.008,302.959h-85.945c-1.113,0-2.176,0.465-2.934,1.281c-0.758,0.816-1.141,1.91-1.055,3.023c0.758,9.973,3.348,20.371,7.91,31.785c0.934,2.332,1.406,4.809,1.406,7.355c0,5.945-2.641,11.523-7.238,15.312c-4.613,3.789-10.691,5.281-16.676,4.117c-7.73-1.516-13.937-7.699-15.449-15.402c-0.816-4.055-0.395-8.152,1.223-11.863c4.773-11.109,7.336-21.383,7.84-31.41c0.055-1.094-0.344-2.164-1.098-2.957c-0.754-0.793-1.805-1.242-2.898-1.242h-82.09v-77.742c7.738,0.871,15.773,3.121,24.422,6.828c5.203,2.27,10.941,2.863,16.602,1.727c10.844-2.125,19.562-10.871,21.691-21.758c1.637-8.344-0.473-16.832-5.789-23.293c-5.309-6.457-13.144-10.16-21.492-10.16c-3.574,0-7.047,0.664-10.324,1.98c-8.996,3.609-17.254,5.891-25.109,6.93v-81.515c0-2.211-1.789-4-4-4H35.906C16.109,101.954,0,118.063,0,137.861v169.098v169.103c0,19.797,16.109,35.906,35.906,35.906h169.098h169.098c19.797,0,35.906-16.109,35.906-35.906V306.959C410.008,304.748,408.219,302.959,406.008,302.959z M35.906,109.955h165.098v81.953c0,1.113,0.465,2.176,1.281,2.934c0.816,0.758,1.922,1.168,3.02,1.055c9.969-0.754,20.367-3.348,31.785-7.93c2.324-0.934,4.797-1.406,7.348-1.406c5.945,0,11.527,2.641,15.316,7.242c3.789,4.605,5.289,10.684,4.113,16.672c-1.512,7.73-7.691,13.937-15.398,15.449c-4.051,0.813-8.156,0.398-11.867-1.223c-11.137-4.77-21.406-7.328-31.402-7.816c-1.094-0.031-2.16,0.344-2.953,1.098c-0.793,0.758-1.242,1.805-1.242,2.898v82.078h-77.746c0.875-7.746,3.129-15.785,6.832-24.426c2.266-5.207,2.859-10.953,1.723-16.594c-2.121-10.84-10.863-19.559-21.754-21.695c-8.336-1.637-16.836,0.473-23.293,5.789c-6.457,5.312-10.16,13.144-10.16,21.492c0,3.566,0.664,7.039,1.977,10.324c3.609,9,5.895,17.258,6.934,25.109H8V137.862C8,122.474,20.519,109.955,35.906,109.955z M8,476.061V310.959h81.953c1.113,0,2.176-0.465,2.934-1.281c0.758-0.816,1.141-1.91,1.055-3.02c-0.754-9.961-3.352-20.359-7.934-31.781c-0.93-2.328-1.402-4.805-1.402-7.352c0-5.945,2.641-11.527,7.242-15.316c4.605-3.785,10.684-5.289,16.672-4.113c7.734,1.516,13.937,7.699,15.445,15.406c0.816,4.047,0.398,8.141-1.219,11.859c-4.77,11.121-7.324,21.391-7.82,31.402c-0.055,1.094,0.344,2.16,1.098,2.953c0.758,0.793,1.805,1.242,2.898,1.242h82.082v77.746c-7.742-0.871-15.777-3.121-24.422-6.828c-5.199-2.266-10.945-2.859-16.602-1.727c-10.844,2.125-19.562,10.871-21.691,21.758c-1.637,8.344,0.473,16.836,5.789,23.297c5.309,6.453,13.144,10.156,21.488,10.156c3.574,0,7.051-0.664,10.328-1.98c8.996-3.609,17.254-5.891,25.109-6.93v77.515H35.906C20.519,503.967,8,491.448,8,476.061z M402.008,476.061c0,15.387-12.519,27.906-27.906,27.906H209.004v-81.953c0-1.113-0.465-2.176-1.281-2.934c-0.816-0.758-1.898-1.129-3.02-1.055c-9.969,0.754-20.367,3.348-31.785,7.93c-2.324,0.934-4.801,1.406-7.352,1.406c-5.945,0-11.527-2.641-15.312-7.242c-3.789-4.605-5.289-10.684-4.113-16.672c1.512-7.73,7.691-13.937,15.398-15.449c4.066-0.813,8.156-0.395,11.867,1.223c11.129,4.77,21.402,7.324,31.402,7.816c1.094,0.09,2.16-0.348,2.953-1.098c0.793-0.758,1.242-1.805,1.242-2.898v-82.082h77.75c-0.879,7.758-3.137,15.797-6.848,24.434c-2.266,5.199-2.863,10.945-1.727,16.598c2.125,10.84,10.871,19.559,21.758,21.695c8.352,1.641,16.84-0.48,23.297-5.793c6.453-5.312,10.156-13.144,10.156-21.488c0-3.57-0.664-7.047-1.977-10.324c-3.598-8.996-5.871-17.258-6.914-25.121h77.508L402.008,476.061L402.008,476.061z"></path><path fill="#333" d="M511.832,187.635l-48.5-161.996c-5.676-18.965-25.738-29.766-44.695-24.098L256.641,50.037c-2.113,0.633-3.316,2.863-2.684,4.98l24.648,82.336c0.32,1.066,1.07,1.953,2.07,2.441c0.996,0.492,2.152,0.535,3.199,0.145c9.348-3.598,18.566-9.059,28.18-16.695c1.969-1.562,4.203-2.727,6.645-3.453c5.691-1.707,11.801-0.781,16.746,2.543c4.953,3.324,8.133,8.715,8.727,14.789c0.766,7.848-3.379,15.566-10.328,19.219c-3.645,1.953-7.691,2.715-11.711,2.234c-12.031-1.391-22.609-0.895-32.34,1.5c-1.066,0.262-1.977,0.945-2.52,1.898c-0.543,0.949-0.672,2.082-0.359,3.133l24.691,82.472c0.633,2.117,2.855,3.312,4.98,2.684l78.316-23.445c1.383,7.684,1.523,16.031,0.445,25.367c-0.68,5.637,0.398,11.312,3.109,16.398c4.738,9,14.332,14.668,24.437,14.668c0.871,0,1.75-0.043,2.625-0.129c8.465-0.824,15.992-5.277,20.656-12.223c4.664-6.941,5.965-15.508,3.57-23.504c-1.027-3.418-2.66-6.555-4.855-9.324c-6.02-7.574-10.57-14.836-13.828-22.082l78.086-23.375c1.016-0.305,1.867-1,2.371-1.934C512.023,189.749,512.137,188.651,511.832,187.635z M424.516,209.6c-1.066,0.32-1.953,1.07-2.441,2.07c-0.492,1-0.543,2.156-0.145,3.199c3.598,9.348,9.059,18.566,16.695,28.18c1.563,1.969,2.727,4.203,3.457,6.645c1.703,5.695,0.777,11.801-2.547,16.746c-3.324,4.953-8.715,8.133-14.793,8.723c-7.844,0.785-15.555-3.371-19.215-10.324c-1.945-3.648-2.719-7.691-2.234-11.715c1.387-12.012,0.898-22.59-1.5-32.336c-0.262-1.066-0.945-1.977-1.898-2.52c-0.609-0.348-1.293-0.527-1.984-0.527c-0.387,0-0.773,0.055-1.148,0.168l-78.64,23.543l-22.297-74.484c7.676-1.379,16.027-1.516,25.371-0.445c5.637,0.676,11.312-0.398,16.391-3.109c9.777-5.137,15.625-16.016,14.547-27.062c-0.824-8.465-5.281-15.996-12.23-20.66c-6.941-4.656-15.508-5.961-23.496-3.562c-3.418,1.02-6.555,2.652-9.328,4.852c-7.574,6.02-14.836,10.57-22.082,13.828L262.77,56.553L420.934,9.205c14.738-4.418,30.32,3.984,34.734,18.73L503.02,186.1L424.516,209.6z"></path></svg>