<svg xmlns="http://www.w3.org/2000/svg" data-name="Layer 1" viewBox="0 0 512 512" id="monitor-technology"><g data-name="&lt;Group&lt;"><g data-name="&lt;Group&lt;"><path fill="#fedb41" d="M426.02 154.5a19.52 19.52 0 1 1 5.72 13.8A19.452 19.452 0 0 1 426.02 154.5zM426.02 357.5a19.52 19.52 0 1 1 5.72 13.8A19.452 19.452 0 0 1 426.02 357.5zM421.64 79.38a19.52 19.52 0 1 1 5.72 13.8A19.452 19.452 0 0 1 421.64 79.38zM421.64 229.62a19.52 19.52 0 1 1 5.72 13.8A19.452 19.452 0 0 1 421.64 229.62zM421.64 282.38a19.52 19.52 0 1 1 5.72 13.8A19.452 19.452 0 0 1 421.64 282.38zM421.64 432.62a19.52 19.52 0 1 1 5.72 13.8A19.452 19.452 0 0 1 421.64 432.62z" data-name="&lt;Group&lt;"></path><polygon fill="#00acea" points="273.26 403.43 273.26 474.76 193.26 474.76 213.26 403.43 273.26 403.43" data-name="&lt;Group&lt;"></polygon><polygon fill="#fedb41" points="273.26 333.43 273.26 403.43 213.26 403.43 46.94 403.43 46.94 333.43 273.26 333.43" data-name="&lt;Group&lt;"></polygon><rect width="226.32" height="296.19" x="46.94" y="37.24" fill="#00efd1" data-name="&lt;Group&lt;"></rect></g><g data-name="&lt;Group&lt;"><path fill="#083863" d="M419.2,163a28.382,28.382,0,0,0,6.888,11.208l0-.123a27.558,27.558,0,1,0,0-38.789A24.349,24.349,0,0,0,419.2,147H281V127h72.64c4.418,0,8.36-3.441,8.36-7.86V87h52.816A24.162,24.162,0,0,0,421.7,98.647a27.457,27.457,0,1,0,0-38.926A28.619,28.619,0,0,0,414.816,71H353.64c-4.418,0-7.64,3.961-7.64,8.38V111H281V37.24A7.992,7.992,0,0,0,273.26,29H46.94A8.158,8.158,0,0,0,39,37.24V403.43c0,4.419,3.522,7.57,7.94,7.57H202.708l-15.514,56H159.72a8,8,0,0,0,0,16H273.26a7.992,7.992,0,0,0,7.74-8.24V401h65v31.62c0,4.419,3.222,8.38,7.64,8.38h61.176a28.594,28.594,0,0,0,6.887,11.267,27.575,27.575,0,1,0,0-38.9A24.132,24.132,0,0,0,414.816,425H362V392.86c0-4.419-3.942-7.86-8.36-7.86H281V366H419.2a28.382,28.382,0,0,0,6.888,11.208l0-.123a27.558,27.558,0,1,0,0-38.789A24.349,24.349,0,0,0,419.2,350H281V330h72.64c4.418,0,8.36-3.441,8.36-7.86V290h52.816a24.162,24.162,0,0,0,6.888,11.647,27.457,27.457,0,1,0,27.263-45.659A27.46,27.46,0,1,0,421.7,210.351,24.169,24.169,0,0,0,414.816,222H362V189.86c0-4.419-3.942-7.86-8.36-7.86H281V163Zm18.2-16.639a11.5,11.5,0,1,1-3.374,8.139A11.537,11.537,0,0,1,437.394,146.361Zm-4.376-75.124a11.5,11.5,0,1,1-3.378,8.143A11.477,11.477,0,0,1,433.018,71.237Zm0,353.24a11.506,11.506,0,1,1-3.377,8.143A11.478,11.478,0,0,1,433.017,424.477Zm4.377-75.116a11.5,11.5,0,1,1-3.374,8.139A11.537,11.537,0,0,1,437.394,349.361ZM55,45H265V325H55ZM265,467H203.812l15.513-56H265Zm0-72H55V341H265ZM449.3,290.523a11.511,11.511,0,1,1,0-16.286A11.53,11.53,0,0,1,449.3,290.523Zm-16.287-69.046a11.506,11.506,0,1,1-3.377,8.143A11.478,11.478,0,0,1,433.017,221.477ZM346,198v31.62c0,4.419,3.222,8.38,7.64,8.38h61.176a28.594,28.594,0,0,0,6.887,11.267,27.134,27.134,0,0,0,11.651,6.828,26.836,26.836,0,0,0-11.65,6.685A28.423,28.423,0,0,0,414.816,274H353.64c-4.418,0-7.64,3.961-7.64,8.38V314H281V198Z" data-name="&lt;Compound Path&lt;"></path></g></g></svg>